<svg width="94" height="26" viewBox="0 0 94 26" fill="none" xmlns="http://www.w3.org/2000/svg">
<path fill-rule="evenodd" clip-rule="evenodd" d="M12.011 13.6588V9.32211L0.022766 13.778H6.10352e-05V18.2281H0.022766L12.011 22.684V18.3417L5.86363 15.9917L12.011 13.6531V13.6588Z" fill="#F7DD43"/>
<path fill-rule="evenodd" clip-rule="evenodd" d="M81.4486 22.4682V18.1316L87.5903 15.7986L81.4486 13.4657V9.12904L93.4198 13.5849H93.4482V18.0407H93.4198L81.4486 22.4739V22.4682ZM76.3059 2.99301L69.2674 25.5902H73.4451L80.4836 2.99301H76.3059Z" fill="#F7DD43"/>
<path fill-rule="evenodd" clip-rule="evenodd" d="M29.6246 8.72601C30.8166 10.0316 31.441 11.7571 31.3672 13.5224V23.1494H27.1895V14.4079C27.2406 13.4316 26.9284 12.478 26.3153 11.7174C25.7364 11.0419 24.8792 10.6673 23.9881 10.707C21.3713 10.707 20.0601 12.5234 20.0601 16.1506V23.1494H15.8824V7.34668H20.0601V8.77142C21.3883 7.48291 23.1877 6.79609 25.0382 6.87556C26.7638 6.80177 28.4326 7.47724 29.6246 8.72601Z" fill="#F7DD43"/>
<path fill-rule="evenodd" clip-rule="evenodd" d="M36.6915 0.552246V23.1494H40.8692V0.552246H36.6915Z" fill="#F7DD43"/>
<path fill-rule="evenodd" clip-rule="evenodd" d="M64.4935 23.1494H61.0083L57.5911 13.8403L54.14 23.1494H50.6548L44.7969 7.31833H49.2641L52.5563 16.7863L55.9507 7.31833H59.2146L62.609 16.8147L65.9012 7.31833H70.3684L64.5048 23.1494H64.4935Z" fill="#F7DD43"/>
</svg>
